<?xml version="1.0" encoding="UTF-8"?>
<svg width="16px" height="20px" viewBox="0 0 16 20" version="1.1" xmlns="http://www.w3.org/2000/svg" xmlns:xlink="http://www.w3.org/1999/xlink">
    <title>input_voice</title>
    <defs>
        <path d="M14.75,8.5 C15.1642136,8.5 15.5,8.83578644 15.5,9.25 C15.5,13.1388445 12.5402456,16.3364013 8.75048697,16.7129202 L8.75,19.25 C8.75,19.6642136 8.41421356,20 8,20 C7.60057978,20 7.27408478,19.68777 7.25127317,19.2940682 L7.25,19.25 L7.25051918,16.7130201 C3.46027831,16.3369673 0.5,13.1391887 0.5,9.25 C0.5,8.83578644 0.835786438,8.5 1.25,8.5 C1.66421356,8.5 2,8.83578644 2,9.25 C2,12.5637085 4.6862915,15.25 8,15.25 C11.3137085,15.25 14,12.5637085 14,9.25 C14,8.83578644 14.3357864,8.5 14.75,8.5 Z M8,0 C10.209139,0 12,1.790861 12,4 L12,4 L12,9.25 C12,11.459139 10.209139,13.25 8,13.25 C5.790861,13.25 4,11.459139 4,9.25 L4,9.25 L4,4 C4,1.790861 5.790861,0 8,0 Z M8,1.5 C6.61928813,1.5 5.5,2.61928813 5.5,4 L5.5,4 L5.5,9.25 C5.5,10.6307119 6.61928813,11.75 8,11.75 C9.38071187,11.75 10.5,10.6307119 10.5,9.25 L10.5,9.25 L10.5,4 C10.5,2.61928813 9.38071187,1.5 8,1.5 Z" id="path-1"></path>
    </defs>
    <g id="控件" stroke="none" stroke-width="1" fill="none" fill-rule="evenodd">
        <g id="输入框" transform="translate(-28.000000, -18.000000)">
            <g id="编组" transform="translate(24.000000, 16.000000)">
                <g transform="translate(0.000000, -0.250000)" id="symbol/frame/symbol_grid24-copy"></g>
                <g id="编组-2" transform="translate(4.000000, 2.000000)">
                    <mask id="mask-2" fill="white">
                        <use xlink:href="#path-1"></use>
                    </mask>
                    <g id="形状结合" fill-rule="nonzero"></g>
                    <rect id="color/#000000" fill-opacity="0.9" fill="#000000" mask="url(#mask-2)" x="-4" y="-2" width="24" height="24"></rect>
                </g>
            </g>
        </g>
    </g>
</svg>