<?xml version="1.0" encoding="UTF-8"?>
<svg width="25px" height="21px" viewBox="0 0 25 21" version="1.1" xmlns="http://www.w3.org/2000/svg" xmlns:xlink="http://www.w3.org/1999/xlink">
    <title>Tab_chat_normal</title>
    <g id="页面-1" stroke="none" stroke-width="1" fill="none" fill-rule="evenodd">
        <g id="我的" transform="translate(-33.000000, -733.000000)">
            <g id="BottomNavigationBar/Port/Item_4" transform="translate(0.000000, 724.000000)">
                <g id="Bottom-tab/item/normal" transform="translate(4.090909, 7.750000)">
                    <g id="编组" transform="translate(29.605037, 0.000000)">
                        <rect id="矩形" x="0" y="0" width="24" height="24"></rect>
                        <path d="M12.7479573,2 C16.2157917,2 19.027027,4.81123529 19.027027,8.27906977 L19.027027,8.92507661 C19.027027,12.3929111 16.2157917,15.2041464 12.7479573,15.2041464 L11.5190541,15.204 L7.73245924,18.8744581 C7.10581189,19.4817451 6.10527662,18.9096671 6.24440685,18.1064738 L6.26784337,18.0049395 L6.28036483,17.9647128 C6.53597784,17.1997746 6.73380158,16.5514404 6.87358015,16.0218973 L6.87358015,16.0218973 L6.92327575,15.8288912 C6.94509286,15.7418391 7.02058076,15.4261969 7.0700171,15.2022661 L6.33312382,15.2041464 C2.86528935,15.2041464 0.0540540541,12.3929111 0.0540540541,8.92507661 L0.0540540541,8.27906977 C0.0540540541,4.81123529 2.86528935,2 6.33312382,2 L12.7479573,2 Z" id="形状结合备份" fill-opacity="0.4" fill="#182431" fill-rule="nonzero"></path>
                        <path d="M19.4951129,5.65971317 C21.9648726,6.37608111 23.7702703,8.65515806 23.7702703,11.3559082 L23.7702703,11.3559082 L23.7702703,11.8870266 C23.7702703,15.1622036 21.1152147,17.8172592 17.8400377,17.8172592 L17.8400377,17.8172592 L17.1439649,17.8149634 C17.1482768,17.8343751 17.1527995,17.8545244 17.1574735,17.8751738 L17.1574735,17.8751738 L17.2159961,18.1274593 C17.2451522,18.250774 17.2714413,18.3590307 17.282672,18.4035582 L17.282672,18.4035582 L17.3296067,18.584687 L17.3895394,18.8044874 C17.5161147,19.2577151 17.6829408,19.7926317 17.8898657,20.4079446 L17.8898657,20.4079446 L17.9016915,20.4456958 L17.9245006,20.5449057 C18.0519467,21.2966087 17.1092493,21.8306317 16.5184431,21.2617056 L16.5184431,21.2617056 L12.9412703,17.8166757 L11.7815839,17.8172592 C11.3356778,17.8172592 10.9012662,17.7680449 10.4834848,17.6747518 L11.9461554,16.2579257 L12.4249407,16.2582004 C16.6533162,16.2582004 20.0810811,12.8304355 20.0810811,8.60207319 C20.0810811,7.62629727 19.8985374,6.69315671 19.5657365,5.83493806 Z" id="形状结合" fill-opacity="0.2" fill="#182431" fill-rule="nonzero"></path>
                    </g>
                </g>
            </g>
        </g>
    </g>
</svg>