<?xml version="1.0" encoding="UTF-8"?>
<svg width="22px" height="22px" viewBox="0 0 22 22" version="1.1" xmlns="http://www.w3.org/2000/svg" xmlns:xlink="http://www.w3.org/1999/xlink">
    <title>ic_gallery_aperture</title>
    <defs>
        <filter color-interpolation-filters="auto" id="filter-1">
            <feColorMatrix in="SourceGraphic" type="matrix" values="0 0 0 0 0.980392 0 0 0 0 0.392157 0 0 0 0 0.000000 0 0 0 1.000000 0"></feColorMatrix>
        </filter>
    </defs>
    <g id="页面-1" stroke="none" stroke-width="1" fill="none" fill-rule="evenodd">
        <g id="发现" transform="translate(-24.000000, -105.000000)">
            <g id="编组-4备份-3" transform="translate(12.000000, 88.000000)">
                <g id="ic_gallery_aperture" transform="translate(12.000000, 16.000000)" filter="url(#filter-1)">
                    <g transform="translate(0.000000, 1.000000)">
                        <rect id="矩形" x="0" y="0"  width="22" height="22"></rect>
                        <path d="M11,1 C16.5228475,1 21,5.4771525 21,11 C21,16.5228475 16.5228475,21 11,21 C5.4771525,21 1,16.5228475 1,11 C1,5.4771525 5.4771525,1 11,1 Z M15.1981818,12.3627273 L10.9990896,19.6363636 C10.9993931,19.6363636 10.9996965,19.6363636 11,19.6363636 C13.6561625,19.6363636 16.032261,18.4372671 17.6165057,16.5508638 L15.1981818,12.3627273 Z M11.9172727,15.3181818 L3.51956067,15.3191025 C4.77393068,17.4869175 6.94358503,19.0588965 9.50005755,19.5065734 L11.9172727,15.3181818 Z M19.1178484,8.04569509 L14.28,8.04545455 L18.4799105,15.3200162 C19.2153924,14.0493076 19.6363636,12.5738154 19.6363636,11 C19.6363636,9.96231545 19.4533534,8.96737523 19.1178484,8.04569509 Z M2.36363636,11 C2.36363636,12.0380258 2.54676706,13.0332791 2.88248263,13.9552142 L7.71909091,13.9545455 L3.52008948,6.6799838 C2.78460761,7.95069235 2.36363636,9.42618464 2.36363636,11 Z M7.58818182,11 L9.29363636,13.9545455 L12.7045455,13.9545455 L14.4109091,10.9990909 L12.7054545,8.04545455 L9.29363636,8.04545455 L7.58818182,11 Z M10.9990909,2.36363636 C8.34383752,2.36363636 5.96773903,3.56273288 4.38349425,5.44913621 L6.80090909,9.63636364 L10.9990909,2.36363636 Z M12.4999425,2.49342662 L10.0809091,6.68181818 L18.480968,6.68181818 C17.226679,4.51352427 15.0567742,2.94116635 12.4999425,2.49342662 Z" id="path-1" fill="#FA6400" fill-rule="nonzero"></path>
                    </g>
                </g>
            </g>
        </g>
    </g>
</svg>