<?xml version="1.0" encoding="UTF-8"?>
<svg width="22px" height="22px" viewBox="0 0 22 22" version="1.1" xmlns="http://www.w3.org/2000/svg" xmlns:xlink="http://www.w3.org/1999/xlink">
    <title>Tab_discover_normal</title>
    <defs>
        <filter color-interpolation-filters="auto" id="filter-1">
            <feColorMatrix in="SourceGraphic" type="matrix" values="0 0 0 0 0.094118 0 0 0 0 0.141176 0 0 0 0 0.192157 0 0 0 0.400000 0"></feColorMatrix>
        </filter>
    </defs>
    <g id="页面-1" stroke="none" stroke-width="1" fill="none" fill-rule="evenodd">
        <g id="+菜单" transform="translate(-214.000000, -732.000000)">
            <g id="BottomNavigationBar/Port/Item_4" transform="translate(0.000000, 724.000000)">
                <g id="Bottom-tab/item/normal" transform="translate(184.090909, 7.000000)">
                    <g id="发现-(3)" transform="translate(28.909091, 0.000000)" filter="url(#filter-1)">
                        <g>
                            <rect id="矩形" opacity="0.520548503" x="0" y="0" width="24" height="24"></rect>
                            <path d="M12.0676925,1.5 C17.8666824,1.5 22.5676925,6.20101013 22.5676925,12 C22.5676925,17.7989899 17.8666824,22.5 12.0676925,22.5 C6.26870267,22.5 1.56769254,17.7989899 1.56769254,12 C1.56769254,6.20101013 6.26870267,1.5 12.0676925,1.5 Z M15.7475991,6.98306075 L10.4117346,8.9088785 C9.74943103,9.14796951 9.2279284,9.66947215 8.98883741,10.3317757 L7.05075329,15.6676402 C6.91221555,16.0502785 7.00753331,16.4785179 7.29528739,16.766272 C7.58304146,17.0540261 8.01128082,17.1493438 8.39391918,17.0108061 L13.7359168,15.0911215 C14.3982204,14.8520305 14.919723,14.3305279 15.158814,13.6682243 L17.0784986,8.32622663 C17.2170364,7.94358827 17.1217186,7.51534892 16.8339645,7.22759484 C16.5462104,6.93984076 16.1179711,6.844523 15.7353327,6.98306075 L15.7475991,6.98306075 Z M12.0676925,13.3125 C12.5996373,13.3174717 13.0819742,13.0008627 13.2889948,12.5108297 C13.4960154,12.0207967 13.3867715,11.454267 13.0123834,11.076347 C12.6379954,10.698427 12.0725165,10.5838685 11.5805612,10.7862788 C11.088606,10.9886892 10.7674589,11.468032 10.7674589,12 C10.7674589,12.3480966 10.9057398,12.6819362 11.1518813,12.9280777 C11.3980227,13.1742191 11.7318623,13.3125 12.0799589,13.3125 L12.0676925,13.3125 Z" id="形状" fill="#000000" fill-opacity="0.4" fill-rule="nonzero"></path>
                        </g>
                    </g>
                </g>
            </g>
        </g>
    </g>
</svg>