<?xml version="1.0" encoding="UTF-8"?>
<svg width="22px" height="22px" viewBox="0 0 22 22" version="1.1" xmlns="http://www.w3.org/2000/svg" xmlns:xlink="http://www.w3.org/1999/xlink">
    <title>ic_album</title>
    <defs>
        <filter color-interpolation-filters="auto" id="filter-1">
            <feColorMatrix in="SourceGraphic" type="matrix" values="0 0 0 0 0.192157 0 0 0 0 0.823529 0 0 0 0 0.364706 0 0 0 1.000000 0"></feColorMatrix>
        </filter>
        <path d="M6.339954,20.1666667 C5.02540766,20.1666667 4.38564574,20.0431229 3.72068271,19.6874968 C3.43623723,19.5353737 3.17964841,19.3489261 2.95395566,19.1311932 C2.94367803,19.1195823 2.93254114,19.1086933 2.92148255,19.0977259 C2.87653331,19.0548486 2.83374461,19.0099823 2.79219235,18.963923 C2.78531881,18.9543301 2.77733942,18.9453692 2.76940718,18.9363626 C2.59316782,18.7387968 2.44065573,18.5189417 2.31250318,18.2793173 C2.25829146,18.1779502 2.21137685,18.0818399 2.16901971,17.9837621 L2.16901971,17.9837621 L1.98904163,17.5670236 L2.01925179,17.534406 C1.89688832,17.0748206 1.83333333,16.4650416 1.83333333,15.4662105 L1.83333333,6.53378953 C1.83333333,4.93411406 1.99634895,4.33233958 2.30288206,3.74725999 L2.32307662,3.70911621 C2.62742234,3.1400392 3.06726259,2.6875927 3.62463163,2.36974244 L3.70911621,2.32307662 C4.30664707,2.00351362 4.89933851,1.83333333 6.53378953,1.83333333 L15.4662105,1.83333333 C17.0658859,1.83333333 17.6676604,1.99634895 18.25274,2.30288206 L18.2908838,2.32307662 C18.8599608,2.62742234 19.3124073,3.06726259 19.6302576,3.62463163 L19.6769234,3.70911621 C19.9964864,4.30664707 20.1666667,4.89933851 20.1666667,6.53378953 L20.1663333,12.5053333 L18.7913333,11.1303333 L18.7916667,6.53378953 C18.7916667,5.25120219 18.7065069,4.81020862 18.4644302,4.35756464 C18.273017,3.99965293 18.0003471,3.72698305 17.6424354,3.53556977 C17.2124236,3.30559695 16.7929263,3.2172416 15.6523933,3.208981 L6.43916014,3.20849413 L6.25446987,3.20985316 C5.1838248,3.22224531 4.77566474,3.31196739 4.35756464,3.53556977 C3.99965293,3.72698305 3.72698305,3.99965293 3.53556977,4.35756464 C3.29349312,4.81020862 3.20833333,5.25120219 3.20833333,6.53378953 L3.20849413,15.5608399 L3.20985316,15.7455301 C3.21231031,15.9578204 3.21780776,16.1440644 3.22678636,16.3095042 L5.71191218,13.8235249 C6.27232043,13.2720513 6.62974694,13.0371079 7.10220775,12.8939067 C7.55647533,12.7562198 8.026858,12.7562198 8.49061187,12.8968569 L8.49061187,12.8968569 L8.56732616,12.921414 C8.99810839,13.0663225 9.34863574,13.3085221 9.88085058,13.8328499 L9.88085058,13.8328499 L9.98540299,13.9373511 C10.2542179,14.2057736 10.6897819,14.2057249 10.958301,13.937478 L10.958301,13.937478 L13.5510408,11.3453833 C14.1114491,10.7939098 14.4688756,10.5589663 14.9413364,10.4157652 C15.395604,10.2780783 15.8659866,10.2780783 16.3202542,10.4157652 C16.7957602,10.5598893 17.1532048,10.7963347 17.7200914,11.3548205 L17.7200914,11.3548205 L20.1666667,13.8011547 L20.1666667,15.660046 C20.1666667,16.9745923 20.0431229,17.6143543 19.6874968,18.2793173 C19.5353737,18.5637628 19.3489261,18.8203516 19.1311932,19.0460443 C19.1195823,19.056322 19.1086933,19.0674589 19.0977259,19.0785175 C19.0548486,19.1234667 19.0099823,19.1662554 18.963923,19.2078076 C18.9543301,19.2146812 18.9453692,19.2226606 18.9363626,19.2305928 C18.7387968,19.4068322 18.5189417,19.5593443 18.2793173,19.6874968 C17.6523521,20.0228014 17.0477903,20.1517896 15.8789173,20.1654362 L15.8789173,20.1654362 L15.660046,20.1666667 Z M15.9214144,11.7316496 C15.7271987,11.6727835 15.5343919,11.6727835 15.3401762,11.7316496 C15.0945554,11.8060964 14.9085321,11.9319026 14.4550582,12.3853765 L14.4550582,12.3853765 L11.9303155,14.9100071 C11.1247875,15.7147186 9.81954926,15.7148644 9.01360573,14.9100972 L9.01360573,14.9100972 L8.91235238,14.808868 C8.51984208,14.4221931 8.33358272,14.2934958 8.13922489,14.2280269 L8.13922489,14.2280269 L8.08228574,14.2097911 C7.88807003,14.150925 7.69526331,14.150925 7.50104759,14.2097911 C7.25542676,14.2842379 7.06940345,14.4100441 6.61594035,14.8635072 L6.61594035,14.8635072 L3.64830919,17.8295994 C3.66891365,17.8600637 3.69022975,17.8897943 3.71226069,17.9187945 C3.7143574,17.924526 3.71742253,17.9284897 3.72050106,17.9324403 L3.71226069,17.9187945 C3.74396752,17.9605315 3.777155,18.0007557 3.81183275,18.0394765 L3.72050106,17.9324403 C3.75753614,17.9799663 3.79651005,18.0255952 3.83740752,18.0693118 L3.81183275,18.0394765 C3.84930343,18.081316 3.88851408,18.1214003 3.92947684,18.1597416 L3.83740752,18.0693118 C3.87229581,18.106605 3.90858392,18.1425065 3.94626237,18.1770069 L3.92947684,18.1597416 C3.97091247,18.1985255 4.01414089,18.235526 4.05917465,18.2707555 L3.94626237,18.1770069 C3.99002795,18.217081 4.03566939,18.2552646 4.08317185,18.291543 L4.05917465,18.2707555 C4.15108291,18.3426544 4.25051069,18.4071772 4.35756464,18.4644302 C4.78757642,18.694403 5.20707371,18.7827584 6.34760673,18.791019 L6.53378953,18.7916667 L15.4662105,18.7916667 C16.7487978,18.7916667 17.1897914,18.7065069 17.6424354,18.4644302 C18.0003471,18.273017 18.273017,18.0003471 18.4644302,17.6424354 C18.694403,17.2124236 18.7827584,16.7929263 18.791019,15.6523933 L18.7916667,15.4662105 L18.7914375,14.3705833 L16.751481,12.3307265 C16.386736,11.9714041 16.2061756,11.8372095 16.0080091,11.7611661 L16.0080091,11.7611661 L15.9507367,11.7408775 Z M7.5625,6.64583333 C8.44845679,6.64583333 9.16666667,7.36404321 9.16666667,8.25 C9.16666667,9.13595679 8.44845679,9.85416667 7.5625,9.85416667 C6.67654321,9.85416667 5.95833333,9.13595679 5.95833333,8.25 C5.95833333,7.36404321 6.67654321,6.64583333 7.5625,6.64583333 Z" id="path-2"></path>
    </defs>
    <g id="页面-1" stroke="none" stroke-width="1" fill="none" fill-rule="evenodd">
        <g id="我的" transform="translate(-24.000000, -214.000000)">
            <g id="编组-4" transform="translate(12.000000, 197.000000)">
                <g id="ic_album" transform="translate(12.000000, 4.000000)" filter="url(#filter-1)">
                    <g transform="translate(0.000000, 13.000000)">
                        <rect id="矩形" x="0" y="0" width="22" height="22"></rect>
                        <mask id="mask-3" fill="white">
                            <use xlink:href="#path-2"></use>
                        </mask>
                        <g id="蒙版" fill-rule="nonzero"></g>
                        <g id="编组" mask="url(#mask-3)" fill="#31D25D" fill-opacity="0.9">
                            <g id="Symbol/color-light/colorPrimary">
                                <rect id="color/#000000" x="0" y="0" width="22" height="22"></rect>
                            </g>
                        </g>
                    </g>
                </g>
            </g>
        </g>
    </g>
</svg>