<?xml version="1.0" encoding="UTF-8"?>
<svg width="22px" height="22px" viewBox="0 0 22 22" version="1.1" xmlns="http://www.w3.org/2000/svg" xmlns:xlink="http://www.w3.org/1999/xlink">
    <title>ic_cards</title>
    <defs>
        <filter color-interpolation-filters="auto" id="filter-1">
            <feColorMatrix in="SourceGraphic" type="matrix" values="0 0 0 0 0.000000 0 0 0 0 0.490196 0 0 0 0 1.000000 0 0 0 1.000000 0"></feColorMatrix>
        </filter>
        <path d="M21.0833333,15.5833333 C21.0833333,17.6083774 19.4417107,19.25 17.4166667,19.25 L4.58333333,19.25 C2.55828925,19.25 0.916666667,17.6083774 0.916666667,15.5833333 L0.916666667,6.41666667 C0.916666667,4.39162258 2.55828925,2.75 4.58333333,2.75 L17.4166667,2.75 C19.3763867,2.75 20.9770232,4.28741969 21.0782508,6.22193384 L21.0833333,6.41666667 L21.0833333,15.5833333 Z M19.7076667,8.25 L2.29166667,8.25 L2.29166667,15.5833333 C2.29166667,16.8275341 3.28319539,17.840151 4.51918847,17.8741196 L4.58333333,17.875 L17.4166667,17.875 C18.6608675,17.875 19.6734844,16.8834713 19.7074529,15.6474782 L19.7083333,15.5833333 L19.7076667,8.25 Z M10.3125,9.625 C10.6921958,9.625 11,9.93280423 11,10.3125 C11,10.6921958 10.6921958,11 10.3125,11 L4.35416667,11 C3.9744709,11 3.66666667,10.6921958 3.66666667,10.3125 C3.66666667,9.93280423 3.9744709,9.625 4.35416667,9.625 L10.3125,9.625 Z M17.4808115,4.12588041 L4.58333333,4.125 C3.33913252,4.125 2.32651565,5.11652872 2.29254708,6.35252181 L2.29166667,6.416 L19.7083333,6.41666667 C19.7083333,5.17246585 18.7168046,4.15984898 17.4808115,4.12588041 Z" id="path-2"></path>
    </defs>
    <g id="页面-1" stroke="none" stroke-width="1" fill="none" fill-rule="evenodd">
        <g id="我的" transform="translate(-24.000000, -358.000000)">
            <g id="ic_cards" transform="translate(12.000000, 197.000000)" filter="url(#filter-1)">
                <g transform="translate(12.000000, 161.000000)">
                    <rect id="矩形" x="0" y="0" width="22" height="22"></rect>
                    <mask id="mask-3" fill="white">
                        <use xlink:href="#path-2"></use>
                    </mask>
                    <g id="形状结合" fill-rule="nonzero"></g>
                    <g id="编组" mask="url(#mask-3)" fill="#FA6400" fill-opacity="0.9">
                        <g id="Symbol/color-light/colorPrimary">
                            <rect id="color/#000000" x="0" y="0" width="22" height="22"></rect>
                        </g>
                    </g>
                </g>
            </g>
        </g>
    </g>
</svg>