<?xml version="1.0" encoding="UTF-8"?>
<svg width="22px" height="22px" viewBox="0 0 22 22" version="1.1" xmlns="http://www.w3.org/2000/svg" xmlns:xlink="http://www.w3.org/1999/xlink">
    <title>ic_collect</title>
    <defs>
        <filter color-interpolation-filters="auto" id="filter-1">
            <feColorMatrix in="SourceGraphic" type="matrix" values="0 0 0 0 0.976471 0 0 0 0 0.772549 0 0 0 0 0.254902 0 0 0 1.000000 0"></feColorMatrix>
        </filter>
        <path d="M11.7775436,0.634926924 C12.1226657,0.805254843 12.4020138,1.084603 12.5723417,1.42972506 L14.5909872,5.51994748 C14.7366492,5.81509095 15.0182148,6.01966033 15.3439249,6.06698879 L19.8577534,6.72288645 C20.8142069,6.86186728 21.4768994,7.74989227 21.3379186,8.70634578 C21.2825757,9.08721058 21.1032231,9.4392098 20.8276268,9.70784986 L17.5613898,12.891644 C17.3257038,13.1213812 17.2181553,13.4523814 17.2737932,13.7767754 L18.0448472,18.2723649 C18.2082289,19.2249537 17.5684502,20.1296265 16.6158614,20.2930083 C16.2365356,20.3580678 15.8463415,20.2962671 15.5056856,20.1171737 L12.4135001,18.4922374 C12.8890143,18.1811107 13.3594108,17.8635936 13.8246852,17.5396878 L16.2036973,18.7894766 C16.2523624,18.8150614 16.3081045,18.82389 16.3622939,18.8145958 C16.4886577,18.7929227 16.5764902,18.679939 16.5697055,18.5549525 L16.5664347,18.5259325 L15.822127,14.1896117 C15.233717,14.6534073 14.651428,15.0961739 14.0752601,15.5179114 L13.195356,16.1492968 L13.195356,16.1492968 L12.3237321,16.7504514 C11.7197717,17.1588606 11.1071016,17.5564752 10.485722,17.9432952 L9.54712048,18.5154293 L9.54712048,18.5154293 L6.5004216,20.1171737 C6.2752958,20.2355294 6.03613819,20.2999613 5.79772797,20.3150637 L5.65488977,20.3182423 C5.03733755,20.3066835 4.44481929,19.9678678 4.13709464,19.3825407 C3.95800127,19.0418849 3.89620058,18.6516907 3.96126006,18.2723649 L4.73231401,13.7767754 C4.78795195,13.4523814 4.68040346,13.1213812 4.44471738,12.891644 L1.17848044,9.70784986 C0.486384177,9.03322274 0.472222641,7.92527453 1.14684976,7.23317827 C1.41548982,6.95758191 1.76748904,6.77822934 2.14835384,6.72288645 L6.66218227,6.06698879 C6.98789244,6.01966033 7.26945802,5.81509095 7.41512003,5.51994748 L9.43376548,1.42972506 C9.86150449,0.563031159 10.9108497,0.207187911 11.7775436,0.634926924 Z M10.9591458,1.95808449 L10.9295308,1.96527007 C10.9186646,1.96861565 10.9080292,1.97269676 10.897705,1.97748605 L10.9295308,1.96527007 C10.9108155,1.97103233 10.8927846,1.97897647 10.8758497,1.9889629 L10.897705,1.97748605 C10.8806657,1.98539044 10.8644742,1.99522387 10.8494929,2.00686353 L10.8758497,1.9889629 C10.8564802,2.00038505 10.8385444,2.01447891 10.8226585,2.03103562 L10.8494929,2.00686353 C10.8349373,2.01817235 10.821524,2.03118618 10.8095853,2.04579235 L10.7788696,2.09357363 L8.76022415,6.18379605 C8.65777458,6.39138155 8.5284333,6.58104483 8.37730841,6.74907464 C8.36689578,6.76065179 8.35639741,6.77210731 8.34579765,6.78345927 C8.32154277,6.8094362 8.29672731,6.83489994 8.27139962,6.8598056 C8.25218069,6.8787174 8.23203893,6.89788572 8.21159254,6.9167049 C8.19083435,6.93581237 8.1696972,6.9546158 8.14825426,6.97304979 C8.12322683,6.9945665 8.09772876,7.01562276 8.07182858,7.03616184 C8.05048782,7.05308223 8.02904998,7.06952117 8.00735242,7.08560821 C7.98070846,7.10536464 7.95357168,7.12465932 7.92605691,7.14340738 C7.90492178,7.15781133 7.88336909,7.17201666 7.861597,7.18588799 C7.83077263,7.20552392 7.79964623,7.22441091 7.76810558,7.24261854 C7.74318259,7.25700696 7.71793447,7.27100654 7.69243707,7.28457189 C7.66690923,7.29815315 7.64115119,7.31128953 7.61515443,7.32398347 C7.58903843,7.33673475 7.5627448,7.34901131 7.53622226,7.36083563 C7.50335128,7.37549408 7.46990009,7.3895481 7.43611347,7.40288263 C7.41431502,7.41148634 7.3923271,7.41980861 7.37020461,7.4278259 C7.33780879,7.43956293 7.30534491,7.45057618 7.27261388,7.46093143 C7.24147434,7.47078718 7.20981124,7.48012444 7.17791744,7.48884419 C7.15164244,7.49602683 7.12529134,7.50277116 7.09879321,7.50909269 C7.08290893,7.51288347 7.06677784,7.51656457 7.05059453,7.52008864 L6.99067741,7.53237085 C6.97925198,7.53456774 6.96780208,7.53668672 6.95632837,7.5387273 L6.87787975,7.55139931 L2.36405132,8.20729697 C2.30964206,8.2152031 2.25935646,8.24082489 2.22097931,8.2801958 L2.17890006,8.33787805 C2.17582815,8.34368602 2.17300154,8.3495886 2.17042005,8.35557062 C2.16449622,8.36931413 2.15989,8.3833711 2.15655628,8.39766093 L2.17042005,8.35557062 C2.16039885,8.37879248 2.15407137,8.40321145 2.15142628,8.42794046 L2.15655628,8.39766093 C2.15105904,8.42122457 2.14902189,8.44542138 2.15043452,8.46944495 L2.15142628,8.42794046 C2.14920796,8.44867962 2.14957964,8.46963685 2.15253462,8.4902889 L2.15043452,8.46944495 C2.15177872,8.49230479 2.15624659,8.51500776 2.16382923,8.53685903 L2.15253462,8.4902889 C2.1560908,8.51514267 2.16338839,8.53955445 2.17441573,8.56261222 L2.16382923,8.53685903 C2.17116187,8.55798986 2.18140729,8.57832422 2.19455744,8.59723378 L2.22549797,8.63372032 L5.49173491,11.8175145 C5.66864201,11.9899563 5.81667163,12.185219 5.93345225,12.3960039 C5.9453283,12.4174491 5.95666735,12.4386412 5.96769281,12.4599807 C5.98476849,12.4930124 6.00132004,12.5268904 6.01708883,12.5611038 C6.02632136,12.5811337 6.03531842,12.6013551 6.0440433,12.6216867 C6.05986772,12.6585657 6.07476697,12.6957275 6.08876354,12.7332162 C6.0954323,12.7510694 6.10202451,12.7693658 6.10840225,12.7877355 C6.12028839,12.8219746 6.13140707,12.8563938 6.14177572,12.8910418 C6.15287113,12.9281173 6.16311244,12.9654736 6.17248413,13.0030615 C6.17796581,13.0250458 6.18315883,13.0471494 6.18805129,13.0693263 C6.19476714,13.0997675 6.20091922,13.1303611 6.20649928,13.1610769 C6.21303576,13.1970365 6.21882288,13.2334175 6.22380648,13.2699424 C6.22506929,13.2791953 6.22629025,13.2885353 6.22745863,13.2978842 C6.23350998,13.3463257 6.23814084,13.3948735 6.24134826,13.4436002 C6.24232171,13.4583669 6.24317605,13.4733923 6.24389477,13.4884329 C6.24594229,13.5312853 6.24688899,13.5742497 6.24672221,13.617297 C6.24660006,13.6501739 6.24581127,13.6834943 6.24435124,13.7168455 C6.24302405,13.7470889 6.2411662,13.7770913 6.23876161,13.8071049 C6.23781128,13.8189758 6.23676123,13.8309985 6.23562319,13.8430222 L6.23116275,13.8861574 C6.22880526,13.9071733 6.22617796,13.9281889 6.22327934,13.9491994 L6.21072649,14.030343 L5.43967255,18.5259325 C5.43037834,18.5801219 5.439207,18.6358639 5.46479177,18.684529 C5.47959651,18.7126893 5.49901555,18.7368556 5.52163151,18.7565872 C5.53066279,18.7644774 5.5403436,18.7717488 5.55045515,18.7782636 L5.52163151,18.7565872 C5.53713342,18.7701121 5.55413733,18.7815534 5.57218679,18.7907694 L5.55045515,18.7782636 C5.56710435,18.7889905 5.58492135,18.7976658 5.60348569,18.8041589 L5.57218679,18.7907694 C5.59336524,18.801583 5.61598318,18.8093327 5.63930324,18.8137894 L5.60348569,18.8041589 C5.64312221,18.8180221 5.68616551,18.8219373 5.7285231,18.8146321 L5.69635002,18.818041 C5.71659512,18.8172224 5.73691947,18.813924 5.75687892,18.8080077 L5.80240991,18.7894766 L6.099,18.6328248 L8.805,17.2098248 L9.68578873,16.6743663 C10.8872014,15.926714 12.0550101,15.1377745 13.1892882,14.3075173 C14.4071484,13.4160804 15.6554139,12.426464 16.8943402,11.3749785 L17.512841,10.844248 L19.7806092,8.63372032 C19.8199802,8.59534317 19.845602,8.54505756 19.8535081,8.4906483 L19.8540354,8.42209317 C19.8529596,8.41387917 19.8514789,8.40576962 19.8496114,8.39778877 C19.8467961,8.38572088 19.8430359,8.37379532 19.838433,8.36225854 L19.8496114,8.39778877 C19.8443233,8.3751889 19.8359338,8.35362108 19.8248541,8.33363618 L19.838433,8.36225854 C19.8310465,8.34374458 19.82149,8.3262318 19.8100323,8.31008052 L19.8248541,8.33363618 C19.8138925,8.31386434 19.8002978,8.29564184 19.7844679,8.27950211 L19.8100323,8.31008052 C19.7986234,8.29399801 19.7853296,8.27926542 19.7704162,8.26623846 L19.7844679,8.27950211 C19.771272,8.26604789 19.7565229,8.254041 19.7404512,8.24379044 L19.7704162,8.26623846 C19.7531723,8.25117575 19.7337631,8.23839341 19.7125991,8.22844136 L19.7404512,8.24379044 C19.7231627,8.23276376 19.7043437,8.22376945 19.6842813,8.21719216 L19.6420559,8.20729697 L15.1282275,7.55139931 C15.0242447,7.53628973 14.9220617,7.51476975 14.822156,7.48718644 C14.8041655,7.48221869 14.7863313,7.47707911 14.768573,7.47174673 C14.7427792,7.46400398 14.7169359,7.45578397 14.6912639,7.44715676 C14.6551722,7.43502433 14.6196273,7.42216767 14.5844409,7.4085327 C14.5644506,7.40078994 14.5442118,7.39264392 14.5240975,7.38424068 C14.4902091,7.37007802 14.4569534,7.35531648 14.4240667,7.33985247 C14.3932502,7.32536777 14.3624135,7.31008688 14.3319263,7.29418824 C14.3095091,7.28249662 14.2873855,7.27052969 14.2654562,7.25823707 C14.234202,7.24071867 14.2032705,7.22249429 14.1727562,7.20362031 C14.1514954,7.19047184 14.1302994,7.17691705 14.1093158,7.16304793 C14.0811365,7.14441718 14.0536264,7.12542572 14.0265083,7.10589129 C14.0039806,7.08966876 13.9814273,7.07284299 13.9591617,7.05563969 C13.9376716,7.03903453 13.9165082,7.02212616 13.8956203,7.00487455 C13.8659479,6.98036443 13.8369551,6.9552738 13.8085387,6.9295148 C13.7918677,6.9144102 13.7749603,6.89865958 13.7582675,6.88267054 C13.7325411,6.85802801 13.7073573,6.83285363 13.6827016,6.80712907 C13.6663058,6.79001878 13.6503228,6.77286306 13.634574,6.75547361 C13.6079416,6.72606654 13.5819842,6.69599769 13.5567238,6.66528078 C13.5445629,6.65049305 13.5325647,6.63555652 13.520731,6.62047206 C13.4925821,6.58459162 13.465341,6.54784068 13.4390743,6.51028147 C13.4305576,6.49809936 13.4223634,6.48615879 13.4142676,6.4741386 C13.3896373,6.43757254 13.3658596,6.40017205 13.343035,6.36205794 C13.3382863,6.35412737 13.3336394,6.34626964 13.3290331,6.33838204 L13.3060346,6.29814983 C13.2979469,6.28369237 13.2899937,6.26913839 13.2821768,6.25448926 L13.2458831,6.18379605 L11.2272376,2.09357363 C11.2029051,2.04427048 11.1629982,2.0043636 11.113695,1.98003104 L11.076,1.96682475 L11.0537618,1.95934967 C11.0424329,1.95699545 11.0310424,1.95545502 11.0196677,1.9547021 C10.9990062,1.95337037 10.9788315,1.95455654 10.9591458,1.95808449 Z" id="path-2"></path>
    </defs>
    <g id="页面-1" stroke="none" stroke-width="1" fill="none" fill-rule="evenodd">
        <g id="我的" transform="translate(-24.000000, -262.000000)">
            <g id="编组-4" transform="translate(12.000000, 197.000000)">
                <g id="ic_collect" transform="translate(12.000000, 52.000000)" filter="url(#filter-1)">
                    <g transform="translate(0.000000, 13.000000)">
                        <rect id="矩形" x="0" y="0" width="22" height="22"></rect>
                        <mask id="mask-3" fill="white">
                            <use xlink:href="#path-2"></use>
                        </mask>
                        <g id="形状结合" fill-rule="nonzero"></g>
                        <g id="编组" mask="url(#mask-3)" fill="#F9C541" fill-opacity="0.9">
                            <g transform="translate(-1.000000, -1.000000)">
                                <rect id="color/#000000" x="0" y="0" width="24" height="24"></rect>
                            </g>
                        </g>
                    </g>
                </g>
            </g>
        </g>
    </g>
</svg>