<?xml version="1.0" encoding="UTF-8"?>
<svg width="22px" height="22px" viewBox="0 0 22 22" version="1.1" xmlns="http://www.w3.org/2000/svg" xmlns:xlink="http://www.w3.org/1999/xlink">
    <title>ic_emoji</title>
    <defs>
        <filter color-interpolation-filters="auto" id="filter-1">
            <feColorMatrix in="SourceGraphic" type="matrix" values="0 0 0 0 0.976471 0 0 0 0 0.627451 0 0 0 0 0.207843 0 0 0 1.000000 0"></feColorMatrix>
        </filter>
        <path d="M11,0.916666667 C16.5688712,0.916666667 21.0833333,5.43112877 21.0833333,11 C21.0833333,16.5688712 16.5688712,21.0833333 11,21.0833333 C5.43112877,21.0833333 0.916666667,16.5688712 0.916666667,11 C0.916666667,5.43112877 5.43112877,0.916666667 11,0.916666667 Z M11,2.29166667 C6.1905203,2.29166667 2.29166667,6.1905203 2.29166667,11 C2.29166667,15.8094797 6.1905203,19.7083333 11,19.7083333 C15.8094797,19.7083333 19.7083333,15.8094797 19.7083333,11 C19.7083333,6.1905203 15.8094797,2.29166667 11,2.29166667 Z M15.9279981,12.696591 C16.2566493,12.8867416 16.3689263,13.3073136 16.1787757,13.6359648 C15.1174054,15.4704087 13.1590293,16.624719 11.0001833,16.624719 C8.84141989,16.624719 6.88303031,15.4704848 5.8216165,13.636279 C5.63144156,13.3076419 5.74368733,12.8870616 6.07232446,12.6968867 C6.4009616,12.5067117 6.82154188,12.6189575 7.01171683,12.9475946 C7.829776,14.3612646 9.33721686,15.249719 11.0001833,15.249719 C12.6631987,15.249719 14.170597,14.361225 14.9886243,12.9473685 C15.1787749,12.6187173 15.5993469,12.5064404 15.9279981,12.696591 Z M6.64583333,7.33333333 C7.27861979,7.33333333 7.79166667,7.84638021 7.79166667,8.47916667 C7.79166667,9.11195312 7.27861979,9.625 6.64583333,9.625 C6.01304688,9.625 5.5,9.11195312 5.5,8.47916667 C5.5,7.84638021 6.01304688,7.33333333 6.64583333,7.33333333 Z M15.3541667,7.33333333 C15.9869531,7.33333333 16.5,7.84638021 16.5,8.47916667 C16.5,9.11195312 15.9869531,9.625 15.3541667,9.625 C14.7213802,9.625 14.2083333,9.11195312 14.2083333,8.47916667 C14.2083333,7.84638021 14.7213802,7.33333333 15.3541667,7.33333333 Z" id="path-2"></path>
    </defs>
    <g id="页面-1" stroke="none" stroke-width="1" fill="none" fill-rule="evenodd">
        <g id="我的" transform="translate(-24.000000, -422.000000)">
            <g id="编组-4备份" transform="translate(12.000000, 405.000000)">
                <g id="ic_emoji" transform="translate(12.000000, 16.000000)" filter="url(#filter-1)">
                    <g transform="translate(0.000000, 1.000000)">
                        <rect id="矩形" x="0" y="0" width="22" height="22"></rect>
                        <mask id="mask-3" fill="white">
                            <use xlink:href="#path-2"></use>
                        </mask>
                        <g id="合并形状" fill-rule="nonzero"></g>
                        <g id="编组" mask="url(#mask-3)" fill="#F9A035" fill-opacity="0.9">
                            <g id="Symbol/color-light/colorPrimary">
                                <rect id="color/#000000" x="0" y="0" width="22" height="22"></rect>
                            </g>
                        </g>
                    </g>
                </g>
            </g>
        </g>
    </g>
</svg>