<?xml version="1.0" encoding="UTF-8"?>
<svg width="22px" height="23px" viewBox="0 0 22 23" version="1.1" xmlns="http://www.w3.org/2000/svg" xmlns:xlink="http://www.w3.org/1999/xlink">
    <title>ic_record</title>
    <defs>
        <filter color-interpolation-filters="auto" id="filter-1">
            <feColorMatrix in="SourceGraphic" type="matrix" values="0 0 0 0 0.176471 0 0 0 0 0.239216 0 0 0 0 0.874510 0 0 0 1.000000 0"></feColorMatrix>
        </filter>
        <path d="M14.7995438,1 C16.3992193,1 17.0009937,1.16301561 17.5860733,1.46954873 L17.6242171,1.48974329 C18.1932941,1.79408901 18.6457406,2.23392925 18.9635909,2.7912983 L19.0102567,2.87578288 C19.3298197,3.47331374 19.5,4.06600518 19.5,5.7004562 L19.5,16.4662105 L19.4990771,16.6692853 C19.4855534,18.1181826 19.3236569,18.6930987 19.0304513,19.25274 L19.0102567,19.2908838 C18.705911,19.8599608 18.2660707,20.3124073 17.7087017,20.6302576 L17.6242171,20.6769234 C17.0266863,20.9964864 16.4339948,21.1666667 14.7995438,21.1666667 L7.7004562,21.1666667 L7.49738141,21.1657438 C6.04848407,21.1522201 5.47356801,20.9903235 4.91392665,20.6971179 L4.87578288,20.6769234 C4.30670586,20.3725777 3.85425937,19.9327374 3.53640911,19.3753684 L3.48974329,19.2908838 C3.17018029,18.6933529 3,18.1006615 3,16.4662105 L3,5.7004562 C3,4.10078073 3.16301561,3.49900625 3.46954873,2.91392665 L3.48974329,2.87578288 C3.79408901,2.30670586 4.23392925,1.85425937 4.7912983,1.53640911 L4.87578288,1.48974329 C5.47331374,1.17018029 6.06600518,1 7.7004562,1 L14.7995438,1 Z M14.9857266,2.37564767 L7.60582681,2.3751608 L7.42113654,2.37651983 C6.35049146,2.38891197 5.94233141,2.47863406 5.52423131,2.70223644 C5.16631959,2.89364972 4.89364972,3.16631959 4.70223644,3.52423131 C4.46015979,3.97687529 4.375,4.41786886 4.375,5.7004562 L4.3751608,16.5608399 L4.37651983,16.7455301 C4.38891197,17.8161752 4.47863406,18.2243353 4.70223644,18.6424354 C4.89364972,19.0003471 5.16631959,19.273017 5.52423131,19.4644302 C5.95424309,19.694403 6.37374038,19.7827584 7.5142734,19.791019 L14.7995438,19.7916667 C16.0821311,19.7916667 16.5231247,19.7065069 16.9757687,19.4644302 C17.3336804,19.273017 17.6063503,19.0003471 17.7977636,18.6424354 C18.0277364,18.2124236 18.1160917,17.7929263 18.1243523,16.6523933 L18.125,16.4662105 L18.125,5.7004562 C18.125,4.41786886 18.0398402,3.97687529 17.7977636,3.52423131 C17.6063503,3.16631959 17.3336804,2.89364972 16.9757687,2.70223644 C16.5457569,2.47226362 16.1262596,2.38390827 14.9857266,2.37564767 Z M11.25,14.9791667 C11.6296958,14.9791667 11.9375,15.2869709 11.9375,15.6666667 C11.9375,16.0463624 11.6296958,16.3541667 11.25,16.3541667 L7.125,16.3541667 C6.74530423,16.3541667 6.4375,16.0463624 6.4375,15.6666667 C6.4375,15.2869709 6.74530423,14.9791667 7.125,14.9791667 L11.25,14.9791667 Z M15.375,10.3958333 C15.7546958,10.3958333 16.0625,10.7036376 16.0625,11.0833333 C16.0625,11.4630291 15.7546958,11.7708333 15.375,11.7708333 L7.125,11.7708333 C6.74530423,11.7708333 6.4375,11.4630291 6.4375,11.0833333 C6.4375,10.7036376 6.74530423,10.3958333 7.125,10.3958333 L15.375,10.3958333 Z M15.375,5.8125 C15.7546958,5.8125 16.0625,6.12030423 16.0625,6.5 C16.0625,6.87969577 15.7546958,7.1875 15.375,7.1875 L7.125,7.1875 C6.74530423,7.1875 6.4375,6.87969577 6.4375,6.5 C6.4375,6.12030423 6.74530423,5.8125 7.125,5.8125 L15.375,5.8125 Z" id="path-2"></path>
    </defs>
    <g id="页面-1" stroke="none" stroke-width="1" fill="none" fill-rule="evenodd">
        <g id="我的" transform="translate(-24.000000, -557.000000)">
            <g id="编组-4备份-5" transform="translate(12.000000, 541.000000)">
                <g id="ic_record" transform="translate(12.000000, 16.000000)" filter="url(#filter-1)">
                    <g transform="translate(0.000000, 0.916667)">
                        <rect id="矩形" x="0" y="0" width="22" height="22"></rect>
                        <mask id="mask-3" fill="white">
                            <use xlink:href="#path-2"></use>
                        </mask>
                        <g id="形状结合" fill-rule="nonzero"></g>
                        <g id="编组" mask="url(#mask-3)" fill="#2D3DDF" fill-opacity="0.9">
                            <g transform="translate(0.250000, 0.083333)" id="Symbol/color-light/colorPrimary">
                                <rect id="color/#000000" x="0" y="0" width="22" height="22"></rect>
                            </g>
                        </g>
                    </g>
                </g>
            </g>
        </g>
    </g>
</svg>