<?xml version="1.0" encoding="UTF-8"?>
<svg width="22px" height="22px" viewBox="0 0 22 22" version="1.1" xmlns="http://www.w3.org/2000/svg" xmlns:xlink="http://www.w3.org/1999/xlink">
    <title>ic_settings</title>
    <defs>
        <filter color-interpolation-filters="auto" id="filter-1">
            <feColorMatrix in="SourceGraphic" type="matrix" values="0 0 0 0 0.000000 0 0 0 0 0.490196 0 0 0 0 1.000000 0 0 0 1.000000 0"></feColorMatrix>
        </filter>
        <path d="M12.1153717,1.14583333 C12.7575947,1.14583333 13.337921,1.52886353 13.5903872,2.11938128 L13.5903872,2.11938128 L14.3444792,3.88322917 L15.1241042,4.3333125 L17.0343093,4.10307166 C17.6511742,4.02867145 18.2534677,4.31714959 18.5830087,4.83955705 L18.5830087,4.83955705 L18.6150441,4.89257278 L19.979012,7.25095373 C20.3011764,7.807995 20.2592944,8.50364013 19.872625,9.0180054 L19.872625,9.0180054 L18.7192708,10.5519792 L18.7192708,11.4477917 L19.8726484,12.9820075 C20.2464138,13.4792259 20.2980023,14.1458333 20.0100211,14.6928826 L20.0100211,14.6928826 L19.979018,14.7490359 L18.6150441,17.1074272 C18.2936044,17.6632153 17.6717364,17.9738086 17.0343093,17.8969283 L17.0343093,17.8969283 L15.1241042,17.6664583 L14.3444792,18.1165417 L13.5903872,19.8806187 C13.3460651,20.4520875 12.7946939,20.8292391 12.1773202,20.8529768 L12.1773202,20.8529768 L12.1153717,20.8541667 L9.38466631,20.8541667 C8.74240963,20.8541667 8.16205971,20.4710968 7.90961439,19.8805335 L7.90961439,19.8805335 L7.15529167,18.1165417 L6.37566667,17.6664583 L4.4656907,17.8969283 C3.84882576,17.9713286 3.24653226,17.6828504 2.91699126,17.160443 L2.91699126,17.160443 L2.8849559,17.1074272 L1.52098203,14.7490359 C1.19882291,14.1920038 1.24069779,13.4963713 1.62735156,12.9820075 L1.62735156,12.9820075 L2.7805,11.4477917 L2.7805,10.5519792 L1.627375,9.0180054 C1.25359454,8.52078564 1.20199883,7.85416992 1.48998434,7.30710802 L1.48998434,7.30710802 L1.52098801,7.25095373 L2.8849559,4.89257278 C3.20639555,4.33678467 3.8282636,4.02619144 4.4656907,4.10307166 L4.4656907,4.10307166 L6.37566667,4.3333125 L7.15529167,3.88322917 L7.90961439,2.11946648 C8.15391631,1.54795361 8.70530891,1.17076343 9.32271462,1.14702329 L9.32271462,1.14702329 L9.38466631,1.14583333 Z M12.1153717,2.52083333 L9.38466631,2.52083333 C9.29291535,2.52083333 9.21000822,2.5755576 9.17394461,2.65992378 L9.17394461,2.65992378 L8.39002282,4.49380777 C8.29261697,4.72167621 8.12396172,4.91182465 7.9093507,5.03573606 L7.9093507,5.03573606 L6.99714023,5.56242521 C6.7823838,5.68642058 6.53319696,5.73739887 6.28699898,5.70770488 L6.28699898,5.70770488 L4.30104487,5.46817852 C4.20998385,5.45719563 4.12114556,5.5015661 4.07522561,5.5809644 L4.07522561,5.5809644 L2.71125772,7.93934535 C2.66523423,8.01892267 2.67121737,8.11830055 2.72645586,8.1917813 L2.72645586,8.1917813 L3.92571033,9.78708413 C4.074949,9.98560819 4.1556442,10.2272474 4.15564295,10.47561 L4.15564295,10.47561 L4.15563767,11.5243301 C4.15563642,11.7726817 4.07494596,12.0143099 3.92571753,12.2128278 L3.92571753,12.2128278 L2.72644739,13.8082117 C2.67121113,13.8816922 2.66522901,13.9810683 2.71125174,14.0606443 L2.71125174,14.0606443 L4.07522561,16.4190356 C4.12114556,16.4984339 4.20998385,16.5428044 4.30104487,16.5318215 L4.30104487,16.5318215 L6.28699898,16.2922951 C6.53319696,16.2626011 6.7823838,16.3135794 6.99714023,16.4375748 L6.99714023,16.4375748 L7.9093507,16.9642639 C8.12396172,17.0881754 8.29261697,17.2783238 8.39002282,17.5061922 L8.39002282,17.5061922 L9.17394461,19.3400762 C9.21000822,19.4244424 9.29291535,19.4791667 9.38466631,19.4791667 L9.38466631,19.4791667 L12.1153717,19.4791667 C12.2071178,19.4791667 12.2900216,19.4244481 12.3260882,19.3400884 L12.3260882,19.3400884 L13.1102072,17.5060362 C13.2076148,17.2782 13.3762533,17.0880784 13.5908372,16.964178 L13.5908372,16.964178 L14.5028478,16.4375846 C14.7176077,16.3135825 14.9668008,16.2626009 15.2130051,16.2922956 L15.2130051,16.2922956 L17.1989551,16.5318215 C17.2900161,16.5428044 17.3788544,16.4984339 17.4247744,16.4190356 L17.4247744,16.4190356 L18.7887483,14.0606443 C18.834771,13.9810683 18.8287889,13.8816922 18.7735526,13.8082117 L18.7735526,13.8082117 L17.5742825,12.2128278 C17.425054,12.0143099 17.3443636,11.7726817 17.3443623,11.5243301 L17.3443623,11.5243301 L17.344357,10.47561 C17.3443558,10.2272474 17.425051,9.98560819 17.5742897,9.78708413 L17.5742897,9.78708413 L18.7735441,8.1917813 C18.8287826,8.11830055 18.8347658,8.01892267 18.7887423,7.93934535 L18.7887423,7.93934535 L17.4247744,5.5809644 C17.3788544,5.5015661 17.2900161,5.45719563 17.1989551,5.46817852 L17.1989551,5.46817852 L15.2130051,5.70770438 C14.9668008,5.73739913 14.7176077,5.68641746 14.5028478,5.56241542 L14.5028478,5.56241542 L13.5908372,5.03582197 C13.3762533,4.91192158 13.2076148,4.72179997 13.1102072,4.49396382 L13.1102072,4.49396382 L12.3260882,2.65991161 C12.2900216,2.57555193 12.2071178,2.52083333 12.1153717,2.52083333 L12.1153717,2.52083333 Z M10.75,6.875 C13.0281746,6.875 14.875,8.72182541 14.875,11 C14.875,13.2781746 13.0281746,15.125 10.75,15.125 C8.47182541,15.125 6.625,13.2781746 6.625,11 C6.625,8.72182541 8.47182541,6.875 10.75,6.875 Z M10.75,8.25 C9.23121694,8.25 8,9.48121694 8,11 C8,12.5187831 9.23121694,13.75 10.75,13.75 C12.2687831,13.75 13.5,12.5187831 13.5,11 C13.5,9.48121694 12.2687831,8.25 10.75,8.25 Z" id="path-2"></path>
    </defs>
    <g id="页面-1" stroke="none" stroke-width="1" fill="none" fill-rule="evenodd">
        <g id="我的" transform="translate(-24.000000, -490.000000)">
            <g id="编组-4备份-4" transform="translate(12.000000, 473.000000)">
                <g id="ic_settings" transform="translate(12.000000, 16.000000)" filter="url(#filter-1)">
                    <g transform="translate(0.000000, 1.000000)">
                        <rect id="矩形" x="0" y="0" width="22" height="22"></rect>
                        <mask id="mask-3" fill="white">
                            <use xlink:href="#path-2"></use>
                        </mask>
                        <g id="形状结合" fill-rule="nonzero"></g>
                        <g id="编组" mask="url(#mask-3)" fill="#007DFF" fill-opacity="0.9">
                            <g transform="translate(-0.250000, 0.000000)" id="Symbol/color-light/colorPrimary">
                                <rect id="color/#000000" x="0" y="0" width="22" height="22"></rect>
                            </g>
                        </g>
                    </g>
                </g>
            </g>
        </g>
    </g>
</svg>