<?xml version="1.0" encoding="UTF-8"?>
<svg width="22px" height="23px" viewBox="0 0 22 23" version="1.1" xmlns="http://www.w3.org/2000/svg" xmlns:xlink="http://www.w3.org/1999/xlink">
    <title>ic_wallet</title>
    <defs>
        <filter color-interpolation-filters="auto" id="filter-1">
            <feColorMatrix in="SourceGraphic" type="matrix" values="0 0 0 0 0.980392 0 0 0 0 0.392157 0 0 0 0 0.000000 0 0 0 1.000000 0"></feColorMatrix>
        </filter>
    </defs>
    <g id="页面-1" stroke="none" stroke-width="1" fill="none" fill-rule="evenodd">
        <g id="我的" transform="translate(-24.000000, -309.000000)">
            <g id="编组-4" transform="translate(12.000000, 197.000000)">
                <g id="ic_wallet" transform="translate(12.000000, 100.000000)" filter="url(#filter-1)">
                    <g transform="translate(0.000000, 12.721228)">
                        <rect id="矩形" x="0" y="0" width="22" height="22"></rect>
                        <path d="M17.2452072,3.44553961 C17.3279925,3.6729903 17.4045466,3.88332105 17.4748696,4.07653185 C19.218705,4.35766772 20.5512907,5.87093208 20.5512907,7.69543849 L20.5512907,16.8621052 C20.5512907,18.8871492 18.9096681,20.5287718 16.884624,20.5287718 L5.05129067,20.5287718 C3.02624659,20.5287718 1.38462401,18.8871492 1.38462401,16.8621052 L1.38462401,7.69543849 C1.38462401,5.7169587 2.95161894,4.10447018 4.91222129,4.03136047 C5.10335199,3.96282832 5.30093593,3.89091365 5.50470067,3.81674935 L6.17576121,3.57250329 C7.90583917,2.9428064 10.0291167,2.1699966 12.5455937,1.25407386 C14.4485127,0.561467991 16.5526013,1.54262063 17.2452072,3.44553961 Z M16.884624,5.40377183 L5.05129067,5.40377183 C3.80708986,5.40377183 2.79447299,6.39530055 2.76050442,7.63129363 L2.75962401,16.8621052 C2.75962401,18.106306 3.75115273,19.1189228 4.98714581,19.1528914 L5.05129067,19.1537718 L16.884624,19.1537718 C18.1288248,19.1537718 19.1414417,18.1622431 19.1754103,16.92625 L19.1762907,16.8621052 L19.175624,16.0919489 L16.6274123,16.0925247 C14.6023682,16.0925247 12.9607456,14.4509021 12.9607456,12.4258581 L12.9607456,12.2591914 C12.9607456,10.2341473 14.6023682,8.59252472 16.6274123,8.59252472 L19.175624,8.59194891 L19.1762907,7.69543849 C19.1762907,6.45123768 18.1847619,5.43862081 16.9487689,5.40465224 L16.884624,5.40377183 Z M19.175624,14.7169489 L19.175624,9.96694891 L16.6274123,9.96752472 C15.3832115,9.96752472 14.3705946,10.9590534 14.336626,12.1950465 L14.3357456,12.2591914 L14.3357456,12.4258581 C14.3357456,13.6700589 15.3272743,14.6826757 16.5632674,14.7166443 L16.6274123,14.7175247 L19.175624,14.7169489 Z M13.076449,2.52503969 L13.0158714,2.54615121 C11.4409495,3.11937591 10.0830218,3.61362117 8.94208834,4.02888699 L15.9949888,4.03082384 C15.981304,3.99322517 15.967351,3.95488966 15.9531298,3.91581731 C15.5275881,2.74665098 14.2495205,2.13422518 13.076449,2.52503969 Z" id="形状结合" fill="#FA6400" fill-rule="nonzero"></path>
                    </g>
                </g>
            </g>
        </g>
    </g>
</svg>