<?xml version="1.0" encoding="UTF-8"?>
<svg width="22px" height="22px" viewBox="0 0 22 22" version="1.1" xmlns="http://www.w3.org/2000/svg" xmlns:xlink="http://www.w3.org/1999/xlink">
    <title>input_add</title>
    <defs>
        <path d="M11,0 C17.0751322,0 22,4.92486775 22,11 C22,17.0751322 17.0751322,22 11,22 C4.92486775,22 0,17.0751322 0,11 C0,4.92486775 4.92486775,0 11,0 Z M11,1.5 C5.75329488,1.5 1.5,5.75329488 1.5,11 C1.5,16.2467051 5.75329488,20.5 11,20.5 C16.2467051,20.5 20.5,16.2467051 20.5,11 C20.5,5.75329488 16.2467051,1.5 11,1.5 Z M11.75,16.25 C11.75,16.6642136 11.4142136,17 11,17 C10.5857864,17 10.25,16.6642136 10.25,16.25 L10.25,11.749 L5.75,11.75 C5.33578644,11.75 5,11.4142136 5,11 C5,10.5857864 5.33578644,10.25 5.75,10.25 L10.25,10.249 L10.25,5.75 C10.25,5.33578644 10.5857864,5 11,5 C11.4142136,5 11.75,5.33578644 11.75,5.75 L11.75,16.25 Z M16.25,10.25 C16.6642136,10.25 17,10.5857864 17,11 C17,11.4142136 16.6642136,11.75 16.25,11.75 L12.75,11.75 L12.75,10.25 L16.25,10.25 Z" id="path-1"></path>
    </defs>
    <g id="控件" stroke="none" stroke-width="1" fill="none" fill-rule="evenodd">
        <g id="输入框" transform="translate(-321.000000, -17.000000)">
            <g id="编组" transform="translate(320.000000, 16.000000)">
                <g id="编组-2" transform="translate(1.000000, 1.000000)">
                    <mask id="mask-2" fill="white">
                        <use xlink:href="#path-1"></use>
                    </mask>
                    <g id="形状结合" fill-rule="nonzero"></g>
                    <rect id="color/#000000" fill-opacity="0.9" fill="#000000" mask="url(#mask-2)" x="-1" y="-1" width="24" height="24"></rect>
                </g>
            </g>
        </g>
    </g>
</svg>