<?xml version="1.0" encoding="UTF-8"?>
<svg width="22px" height="22px" viewBox="0 0 22 22" version="1.1" xmlns="http://www.w3.org/2000/svg" xmlns:xlink="http://www.w3.org/1999/xlink">
    <title>input_emoji</title>
    <defs>
        <path d="M11,0 C17.0751322,0 22,4.92486775 22,11 C22,17.0751322 17.0751322,22 11,22 C4.92486775,22 0,17.0751322 0,11 C0,4.92486775 4.92486775,0 11,0 Z M11,1.5 C5.75329488,1.5 1.5,5.75329488 1.5,11 C1.5,16.2467051 5.75329488,20.5 11,20.5 C16.2467051,20.5 20.5,16.2467051 20.5,11 C20.5,5.75329488 16.2467051,1.5 11,1.5 Z M16.375998,12.8508265 C16.7345266,13.0582636 16.8570105,13.5170694 16.6495735,13.875598 C15.491715,15.8768095 13.3553047,17.1360571 11.0002,17.1360571 C8.64518533,17.1360571 6.50876034,15.8768925 5.35085437,13.8759408 C5.14339079,13.5174275 5.26584073,13.0586127 5.62435396,12.8511491 C5.9828672,12.6436855 6.44168206,12.7661355 6.64914563,13.1246487 C7.54157382,14.6668342 9.18605475,15.6360571 11.0002,15.6360571 C12.8143986,15.6360571 14.4588331,14.6667909 15.3512265,13.124402 C15.5586636,12.7658734 16.0174694,12.6433895 16.375998,12.8508265 Z M6.25,7 C6.9403125,7 7.5,7.5596875 7.5,8.25 C7.5,8.9403125 6.9403125,9.5 6.25,9.5 C5.5596875,9.5 5,8.9403125 5,8.25 C5,7.5596875 5.5596875,7 6.25,7 Z M15.75,7 C16.4403125,7 17,7.5596875 17,8.25 C17,8.9403125 16.4403125,9.5 15.75,9.5 C15.0596875,9.5 14.5,8.9403125 14.5,8.25 C14.5,7.5596875 15.0596875,7 15.75,7 Z" id="path-1"></path>
    </defs>
    <g id="控件" stroke="none" stroke-width="1" fill="none" fill-rule="evenodd">
        <g id="输入框" transform="translate(-281.000000, -17.000000)">
            <g id="编组" transform="translate(280.000000, 16.000000)">
                <g id="emoji" transform="translate(1.000000, 1.000000)">
                    <mask id="mask-2" fill="white">
                        <use xlink:href="#path-1"></use>
                    </mask>
                    <g id="合并形状" fill-rule="nonzero"></g>
                    <rect id="color/#000000" fill-opacity="0.9" fill="#000000" mask="url(#mask-2)" x="-1" y="-1" width="24" height="24"></rect>
                </g>
            </g>
        </g>
    </g>
</svg>