<?xml version="1.0" encoding="UTF-8"?>
<svg width="40px" height="40px" viewBox="0 0 40 40" version="1.1" xmlns="http://www.w3.org/2000/svg" xmlns:xlink="http://www.w3.org/1999/xlink">
    <title>loading</title>
    <g id="页面-1" stroke="none" stroke-width="1" fill="none" fill-rule="evenodd">
        <g id="视频下载进度" transform="translate(-160.000000, -382.000000)">
            <g id="编组-11" transform="translate(160.000000, 382.000000)">
                <rect id="矩形" x="0" y="0" width="40" height="40"></rect>
                <path d="M20,3.33333333 C10.7952542,3.33333333 3.33333333,10.7952542 3.33333333,20 C3.33333333,29.2047458 10.7952542,36.6666667 20,36.6666667 C29.2047458,36.6666667 36.6666667,29.2047458 36.6666667,20 C36.6666667,10.7952542 29.2047458,3.33333333 20,3.33333333 Z M20,6.66666667 C27.3637967,6.66666667 33.3333333,12.6362033 33.3333333,20 C33.3333333,27.3637967 27.3637967,33.3333333 20,33.3333333 C12.6362033,33.3333333 6.66666667,27.3637967 6.66666667,20 C6.66666667,12.6362033 12.6362033,6.66666667 20,6.66666667 Z" id="椭圆形" fill="#FFFFFF" opacity="0.300000012"></path>
                <path d="M20,3.33333333 C20.9204746,3.33333333 21.6666667,4.07952542 21.6666667,5 C21.6666667,5.92047458 20.9204746,6.66666667 20,6.66666667 C12.6362033,6.66666667 6.66666667,12.6362033 6.66666667,20 C6.66666667,27.3637967 12.6362033,33.3333333 20,33.3333333 C27.3637967,33.3333333 33.3333333,27.3637967 33.3333333,20 C33.3333333,19.0795254 34.0795254,18.3333333 35,18.3333333 C35.9204746,18.3333333 36.6666667,19.0795254 36.6666667,20 C36.6666667,29.2047458 29.2047458,36.6666667 20,36.6666667 C10.7952542,36.6666667 3.33333333,29.2047458 3.33333333,20 C3.33333333,10.7952542 10.7952542,3.33333333 20,3.33333333 Z" id="路径" fill="#FFFFFF"></path>
            </g>
        </g>
    </g>
</svg>