<?xml version="1.0" encoding="UTF-8"?>
<svg width="20px" height="21px" viewBox="0 0 20 21" version="1.1" xmlns="http://www.w3.org/2000/svg" xmlns:xlink="http://www.w3.org/1999/xlink">
    <title>Tab_my_normal</title>
    <defs>
        <filter color-interpolation-filters="auto" id="filter-1" >
            <feColorMatrix in="SourceGraphic" type="matrix" values="0 0 0 0 0.094118 0 0 0 0 0.141176 0 0 0 0 0.192157 0 0 0 1.000000 0"></feColorMatrix>
        </filter>
        <path d="M3.05718954,18.0277778 C3.70884479,16.7035785 5.40205649,12.75 12,12.75 C18.5979435,12.75 20.3199937,16.7035785 20.9428105,18.0277778 C21.1789117,18.5297635 21.3408126,19.2013755 21.4285132,20.0426138 C21.5430527,21.1412322 20.7452933,22.1246863 19.6466742,22.2392193 C19.5777807,22.2464016 19.5085606,22.25 19.4392938,22.25 L4.54657564,22.25 C3.4419985,22.2500138 2.54656181,21.3545771 2.54656181,20.25 C2.54656181,20.1821712 2.55001234,20.1143864 2.55690003,20.0469083 C2.64297264,19.2036609 2.80973581,18.5306174 3.05718954,18.0277778 Z M12,2.25 C9.37664744,2.25 7.25,4.37664744 7.25,7 C7.25,9.62335256 9.37664744,11.75 12,11.75 C14.6233526,11.75 16.75,9.62335256 16.75,7 C16.75,4.37664744 14.6233526,2.25 12,2.25 Z" id="path-2"></path>
    </defs>
    <g id="页面-1" stroke="none" stroke-width="1" fill="none" fill-rule="evenodd" opacity="0.4">
        <g id="消息列表" transform="translate(-305.000000, -733.000000)">
            <g id="BottomNavigationBar/Port/Item_4" transform="translate(0.000000, 724.000000)">
                <g id="Bottom-tab/item/normal" transform="translate(274.090909, 7.000000)">
                    <g id="Tab_my_normal" transform="translate(28.909091, 0.000000)" filter="url(#filter-1)">
                        <g>
                            <mask id="mask-3" fill="white">
                                <use xlink:href="#path-2"></use>
                            </mask>
                            <g id="椭圆形" fill-rule="nonzero"></g>
                            <g id="编组" mask="url(#mask-3)" fill="#000000" fill-opacity="0.4">
                                <g id="color/#000000">
                                    <rect x="0" y="0" width="24" height="24"></rect>
                                </g>
                            </g>
                        </g>
                    </g>
                </g>
            </g>
        </g>
    </g>
</svg>