<?xml version="1.0" encoding="UTF-8"?>
<svg width="8px" height="14px" viewBox="0 0 8 14" version="1.1" xmlns="http://www.w3.org/2000/svg" xmlns:xlink="http://www.w3.org/1999/xlink">
    <title>✏️ic/12x24/Public_arrow/right_greymdpi</title>
    <g id="页面-1" stroke="none" stroke-width="1" fill="none" fill-rule="evenodd" opacity="0.38">
        <g id="我的" transform="translate(-326.000000, -562.000000)" fill="#000000">
            <g id="编组-4备份-5" transform="translate(12.000000, 541.000000)">
                <g id="List/single-line/48/with-right-element备份" transform="translate(12.000000, 16.000000)">
                    <g id="List/Light/items/single-line/right/arrow+text" transform="translate(226.000000, 0.000000)">
                        <g id="✏️ic/12x24/Public_arrow/right_grey" transform="translate(74.000000, 0.000000)">
                            <path d="M9.49233033,11.49238 C9.58565759,11.5389681 9.55341548,11.498226 9.49233033,11.49238 C9.51017607,11.4549844 9.50367766,11.4512352 9.49233033,11.49238 L3.49233033,5.49237995 C3.22821397,5.16920668 2.75408004,5.16920668 2.49233033,5.49237995 C2.16922322,5.75459286 2.16922322,6.22975047 2.49233033,6.49237995 L7.99233033,11.99238 L2.49233033,17.49238 C2.1697231,17.7560092 2.1697231,18.230417 2.49233033,18.49238 C2.75333023,18.8155532 3.22746415,18.8155532 3.49233033,18.49238 L9.49233033,12.49238 C9.45543947,12.5915135 9.49068084,12.5640188 9.49233033,12.49238 C9.78160961,12.2733253 9.81110239,11.873653 9.49233033,11.49238" id="Fill-1" fill-opacity="0.4" fill="#182431" ></path>
                        </g>
                    </g>
                </g>
            </g>
        </g>
    </g>
</svg>